HIERARCHY
ROOT Hips
{
	OFFSET 0.000000 0.000000 0.000000
	CHANNELS 6 Xposition Yposition Zposition Xrotation Yrotation Zrotation
	JOINT C_ctrl
	{
		OFFSET 0.000000 35.040482 -0.000011
		CHANNELS 3 Xrotation Yrotation Zrotation
		JOINT Bip01
		{
			OFFSET -41.537640 41.789009 -0.000007
			CHANNELS 3 Xrotation Yrotation Zrotation
			JOINT Bip01_Pelvis
			{
				OFFSET -2.462887 0.000000 0.000000
				CHANNELS 3 Xrotation Yrotation Zrotation
				JOINT BN_Tail_01
				{
					OFFSET -11.399368 7.351341 -0.000013
					CHANNELS 3 Xrotation Yrotation Zrotation
					JOINT BN_Tail_02
					{
						OFFSET -11.365196 -0.343025 0.000012
						CHANNELS 3 Xrotation Yrotation Zrotation
						JOINT BN_Tail_03
						{
							OFFSET -15.076256 -0.454979 0.000017
							CHANNELS 3 Xrotation Yrotation Zrotation
							JOINT BN_Tail_04
							{
								OFFSET -17.395691 -0.525002 0.000016
								CHANNELS 3 Xrotation Yrotation Zrotation
								JOINT BN_Tail_05
								{
									OFFSET -16.699837 -0.504005 0.000016
									CHANNELS 3 Xrotation Yrotation Zrotation
									End Site
									{
										OFFSET 0.503998 -16.699829 0.000067
									}
								}
							}
						}
					}
				}
				JOINT Bip01_Spine
				{
					OFFSET 8.297798 5.916809 -0.000020
					CHANNELS 3 Xrotation Yrotation Zrotation
					JOINT Bip01_R_Thigh
					{
						OFFSET -8.297779 -5.916794 10.541781
						CHANNELS 3 Xrotation Yrotation Zrotation
						JOINT Bip01_R_Calf
						{
							OFFSET 5.631542 -22.906792 0.862690
							CHANNELS 3 Xrotation Yrotation Zrotation
							JOINT Bip01_R_HorseLink
							{
								OFFSET -16.984341 -19.231926 -3.555767
								CHANNELS 3 Xrotation Yrotation Zrotation
								JOINT Bip01_R_Foot
								{
									OFFSET 4.290367 -24.783146 0.578056
									CHANNELS 3 Xrotation Yrotation Zrotation
									JOINT Bip01_R_Toe0
									{
										OFFSET 3.561211 -5.815116 0.760802
										CHANNELS 3 Xrotation Yrotation Zrotation
										JOINT Bip01_R_Toe0Nub
										{
											OFFSET 16.135469 0.002017 1.534789
											CHANNELS 3 Xrotation Yrotation Zrotation
											End Site
											{
												OFFSET -0.000002 16.208284 -0.000056
											}
										}
									}
								}
							}
						}
					}
					JOINT Bip01_L_Thigh
					{
						OFFSET -8.297813 -5.916832 -10.541739
						CHANNELS 3 Xrotation Yrotation Zrotation
						JOINT Bip01_L_Calf
						{
							OFFSET 5.631535 -22.906792 -0.862625
							CHANNELS 3 Xrotation Yrotation Zrotation
							JOINT Bip01_L_HorseLink
							{
								OFFSET -16.984318 -19.231949 3.555875
								CHANNELS 3 Xrotation Yrotation Zrotation
								JOINT Bip01_L_Foot
								{
									OFFSET 4.290367 -24.783169 -0.577965
									CHANNELS 3 Xrotation Yrotation Zrotation
									JOINT Bip01_L_Toe0
									{
										OFFSET 3.561245 -5.815111 -0.760799
										CHANNELS 3 Xrotation Yrotation Zrotation
										JOINT Bip01_L_Toe0Nub
										{
											OFFSET 6.574303 -0.000005 -1.538561
											CHANNELS 3 Xrotation Yrotation Zrotation
											End Site
											{
												OFFSET 0.000004 -6.751935 0.000023
											}
										}
									}
								}
							}
						}
					}
					JOINT Bip01_Spine1
					{
						OFFSET 20.556803 -4.626213 -0.000025
						CHANNELS 3 Xrotation Yrotation Zrotation
						JOINT Saddle
						{
							OFFSET 17.608810 18.174690 -0.000143
							CHANNELS 3 Xrotation Yrotation Zrotation
							End Site
							{
								OFFSET -0.000063 -0.000061 -22.448387
							}
						}
						JOINT BN_center
						{
							OFFSET 10.743275 -13.417107 -0.172041
							CHANNELS 3 Xrotation Yrotation Zrotation
							End Site
							{
								OFFSET 22.434088 0.553078 -0.579614
							}
						}
						JOINT Bip01_Spine2
						{
							OFFSET 24.765072 -2.054115 -0.000032
							CHANNELS 3 Xrotation Yrotation Zrotation
							JOINT Handle
							{
								OFFSET 63.735676 16.430748 -16.052464
								CHANNELS 3 Xrotation Yrotation Zrotation
								JOINT IK_Chain01
								{
									OFFSET -4.713058 -6.020439 0.185448
									CHANNELS 3 Xrotation Yrotation Zrotation
									End Site
									{
										OFFSET -0.000023 -0.000023 -7.648071
									}
								}
							}
							JOINT BN_hair04_01
							{
								OFFSET 1.987491 16.256981 -2.049672
								CHANNELS 3 Xrotation Yrotation Zrotation
								JOINT BN_hair04_02
								{
									OFFSET -1.318762 -3.831451 -6.174704
									CHANNELS 3 Xrotation Yrotation Zrotation
									JOINT BN_hair04_03
									{
										OFFSET -0.827490 -5.886627 -5.656666
										CHANNELS 3 Xrotation Yrotation Zrotation
										End Site
										{
											OFFSET -2.658262 5.010620 -5.929780
										}
									}
								}
							}
							JOINT Bip01_Neck
							{
								OFFSET 25.574577 9.433014 -0.000084
								CHANNELS 3 Xrotation Yrotation Zrotation
								JOINT Bip01_R_Clavicle
								{
									OFFSET -16.535652 0.011192 6.705692
									CHANNELS 3 Xrotation Yrotation Zrotation
									JOINT Bip01_R_UpperArm
									{
										OFFSET 20.272621 -12.959984 2.510816
										CHANNELS 3 Xrotation Yrotation Zrotation
										JOINT Bip01_R_Forearm
										{
											OFFSET -13.633509 -15.503704 -0.653585
											CHANNELS 3 Xrotation Yrotation Zrotation
											JOINT Bip01_R_Hand
											{
												OFFSET 2.580030 -27.804676 -1.136415
												CHANNELS 3 Xrotation Yrotation Zrotation
												JOINT Bip01_R_Finger0
												{
													OFFSET -0.281744 -19.659061 -0.398649
													CHANNELS 3 Xrotation Yrotation Zrotation
													JOINT Bip01_Xtra02
													{
														OFFSET 4.152210 -5.712314 0.433813
														CHANNELS 3 Xrotation Yrotation Zrotation
														JOINT Bip01_Xtra02Nub
														{
															OFFSET 15.457960 0.041654 0.507982
															CHANNELS 3 Xrotation Yrotation Zrotation
															End Site
															{
																OFFSET -15.421730 -0.157725 -1.163459
															}
														}
													}
													JOINT Bip01_R_Finger0Nub
													{
														OFFSET 8.362326 -9.718440 -0.143142
														CHANNELS 3 Xrotation Yrotation Zrotation
														End Site
														{
															OFFSET -1.213036 -0.198171 9.872291
														}
													}
												}
											}
										}
									}
								}
								JOINT Bip01_L_Clavicle
								{
									OFFSET -16.535673 0.011162 -6.705583
									CHANNELS 3 Xrotation Yrotation Zrotation
									JOINT Bip01_L_UpperArm
									{
										OFFSET 20.272615 -12.959999 -2.510836
										CHANNELS 3 Xrotation Yrotation Zrotation
										JOINT Bip01_L_Forearm
										{
											OFFSET -13.633495 -15.503681 0.653678
											CHANNELS 3 Xrotation Yrotation Zrotation
											JOINT Bip01_L_Hand
											{
												OFFSET 2.579988 -27.804686 1.136487
												CHANNELS 3 Xrotation Yrotation Zrotation
												JOINT Bip01_L_Finger0
												{
													OFFSET -0.281765 -19.659058 0.398696
													CHANNELS 3 Xrotation Yrotation Zrotation
													JOINT Bip01_Xtra01
													{
														OFFSET 4.083549 -5.738758 -0.666714
														CHANNELS 3 Xrotation Yrotation Zrotation
														JOINT Bip01_Xtra01Nub
														{
															OFFSET 6.758158 -0.395525 -0.023239
															CHANNELS 3 Xrotation Yrotation Zrotation
															End Site
															{
																OFFSET 6.764923 -0.254147 -0.029908
															}
														}
													}
													JOINT Bip01_L_Finger0Nub
													{
														OFFSET -0.012636 -9.629153 0.045740
														CHANNELS 3 Xrotation Yrotation Zrotation
														End Site
														{
															OFFSET 0.988407 0.004791 8.293357
														}
													}
												}
											}
										}
									}
								}
								JOINT BN_hair03_01
								{
									OFFSET -5.894140 16.270622 -2.498433
									CHANNELS 3 Xrotation Yrotation Zrotation
									JOINT BN_hair03_02
									{
										OFFSET -0.189278 -7.800507 -6.219162
										CHANNELS 3 Xrotation Yrotation Zrotation
										JOINT BN_hair03_03
										{
											OFFSET 0.612345 -10.844475 -3.370718
											CHANNELS 3 Xrotation Yrotation Zrotation
											End Site
											{
												OFFSET -2.273296 2.862007 -10.769416
											}
										}
									}
								}
								JOINT Bip01_Neck1
								{
									OFFSET 9.383755 11.908699 -0.000007
									CHANNELS 3 Xrotation Yrotation Zrotation
									JOINT BN_hair02_01
									{
										OFFSET 9.126320 18.808022 -1.420810
										CHANNELS 3 Xrotation Yrotation Zrotation
										JOINT BN_hair02_02
										{
											OFFSET 0.393478 -5.181091 -5.248574
											CHANNELS 3 Xrotation Yrotation Zrotation
											JOINT BN_hair02_03
											{
												OFFSET 0.762280 -8.167076 -0.230047
												CHANNELS 3 Xrotation Yrotation Zrotation
												End Site
												{
													OFFSET -0.025837 -1.251419 -8.109770
												}
											}
										}
									}
									JOINT Bip01_Head
									{
										OFFSET 14.266129 10.475403 -0.000008
										CHANNELS 3 Xrotation Yrotation Zrotation
										JOINT BN_Reins_01
										{
											OFFSET 18.547455 -15.740112 -0.000035
											CHANNELS 3 Xrotation Yrotation Zrotation
											JOINT BN_Reins_02
											{
												OFFSET -5.372810 -5.884506 0.000028
												CHANNELS 3 Xrotation Yrotation Zrotation
												JOINT BN_Reins_03
												{
													OFFSET -6.395866 -15.947449 0.000070
													CHANNELS 3 Xrotation Yrotation Zrotation
													JOINT BN_Halter_R_01
													{
														OFFSET -1.234055 -3.096100 7.096737
														CHANNELS 3 Xrotation Yrotation Zrotation
														End Site
														{
															OFFSET 10.514435 -4.176861 -0.000004
														}
													}
													JOINT BN_Halter_L_01
													{
														OFFSET -1.234062 -3.096146 -7.096726
														CHANNELS 3 Xrotation Yrotation Zrotation
														End Site
														{
															OFFSET -10.514435 4.176865 -0.000000
														}
													}
													JOINT BN_Reins_04
													{
														OFFSET -6.737644 -16.971684 0.000074
														CHANNELS 3 Xrotation Yrotation Zrotation
														JOINT BN_Halter_R_02
														{
															OFFSET -4.688869 -11.781956 7.096771
															CHANNELS 3 Xrotation Yrotation Zrotation
															End Site
															{
																OFFSET 14.669624 -5.827511 -0.000006
															}
														}
														JOINT BN_Halter_L_02
														{
															OFFSET -4.688892 -11.782017 -7.096693
															CHANNELS 3 Xrotation Yrotation Zrotation
															End Site
															{
																OFFSET -14.669624 5.827507 -0.000002
															}
														}
														JOINT BN_Reins_05
														{
															OFFSET -6.822578 -16.971161 0.000074
															CHANNELS 3 Xrotation Yrotation Zrotation
															JOINT BN_Reins_06
															{
																OFFSET -6.140354 -15.095148 0.000066
																CHANNELS 3 Xrotation Yrotation Zrotation
																End Site
																{
																	OFFSET -15.095150 6.140352 -0.000002
																}
															}
														}
													}
												}
											}
										}
										JOINT BN_hair01_01
										{
											OFFSET 8.957344 8.870956 0.112121
											CHANNELS 3 Xrotation Yrotation Zrotation
											JOINT BN_hair01_02
											{
												OFFSET 6.002075 -2.962952 -3.121264
												CHANNELS 3 Xrotation Yrotation Zrotation
												End Site
												{
													OFFSET 5.917702 3.813591 -2.232396
												}
											}
										}
										JOINT BN_Eyebrow_R
										{
											OFFSET 11.795959 -0.430496 4.449781
											CHANNELS 3 Xrotation Yrotation Zrotation
											JOINT Bip01_Xtra06Nub
											{
												OFFSET 2.936661 -0.262573 3.246701
												CHANNELS 3 Xrotation Yrotation Zrotation
												End Site
												{
													OFFSET 2.768745 0.208199 3.394807
												}
											}
										}
										JOINT BN_Eyebrow_L
										{
											OFFSET 11.586395 -0.445618 -4.441728
											CHANNELS 3 Xrotation Yrotation Zrotation
											JOINT Bip01_Xtra05Nub
											{
												OFFSET 3.244698 -0.349442 -4.416700
												CHANNELS 3 Xrotation Yrotation Zrotation
												End Site
												{
													OFFSET 3.053162 0.072495 -4.564033
												}
											}
										}
										JOINT Bip01_R_Ear_01
										{
											OFFSET 7.142960 7.567184 4.311657
											CHANNELS 3 Xrotation Yrotation Zrotation
											JOINT Bip01_Xtra04Nub
											{
												OFFSET 9.464531 9.264214 1.682953
												CHANNELS 3 Xrotation Yrotation Zrotation
												End Site
												{
													OFFSET 8.448181 10.159340 1.910823
												}
											}
										}
										JOINT Bip01__L_Ear_01
										{
											OFFSET 7.214943 7.717056 -4.356771
											CHANNELS 3 Xrotation Yrotation Zrotation
											JOINT Bip01_Xtra03Nub
											{
												OFFSET 9.230225 8.944366 -2.322746
												CHANNELS 3 Xrotation Yrotation Zrotation
												End Site
												{
													OFFSET 8.170288 9.841324 -2.643566
												}
											}
										}
										JOINT Bip01_Jaw
										{
											OFFSET 9.196068 -4.110695 -0.000013
											CHANNELS 3 Xrotation Yrotation Zrotation
											JOINT Bip01_Ponytail1Nub
											{
												OFFSET 10.976463 -21.082108 -0.000053
												CHANNELS 3 Xrotation Yrotation Zrotation
												End Site
												{
													OFFSET 11.247093 -20.938980 0.000113
												}
											}
										}
										JOINT Bip01_HeadNub
										{
											OFFSET 29.954575 -18.249489 -0.000063
											CHANNELS 3 Xrotation Yrotation Zrotation
											End Site
											{
												OFFSET -9.198448 -13.366348 0.000168
											}
										}
									}
								}
							}
						}
					}
				}
			}
		}
	}
}
MOTION
Frames: 4
Frame Time: 0.033333
0.000000 0.000000 0.000000 0.000008 0.000000 -0.000000 -0.000000 0.000000 -0.000000 0.218913 0.169865 -5.699975 0.407224 -0.839734 -0.216861 1.822753 -3.837948 -30.708906 2.885504 -4.754966 30.690256 1.109028 -1.683450 52.737824 2.162754 -5.294005 24.780034 1.045700 -12.319208 3.155998 -0.270607 2.406006 12.808333 -1.845798 16.065969 2.602387 4.395888 -0.632072 -22.629506 -5.914056 -2.056985 32.056779 -0.570298 -17.183735 -19.946958 -0.056590 -1.383176 0.333032 0.000101 -0.000136 0.000004 7.100778 -12.072349 -3.379297 -1.396972 0.009830 -7.080925 6.063705 2.164398 32.983202 -7.743580 12.938038 -23.884179 -0.746785 0.206754 -4.381681 -0.009299 0.000417 -0.038427 -0.248940 -0.061852 -6.307792 0.917530 -0.020777 6.784385 -2.849641 -0.257710 0.082542 -0.283764 0.093617 -6.491660 0.000078 -0.000112 -0.000056 -0.000052 -0.014927 0.015042 8.870458 1.165408 -2.923406 -9.046796 13.538532 -11.553869 25.986322 8.134567 -44.117131 1.544175 0.884625 -15.315123 -2.279543 0.568347 28.239595 -6.235005 -4.031218 -19.591554 0.086526 -0.711851 17.552346 9.380808 2.466190 -7.176289 -1.801665 3.676828 5.674050 -0.109805 -0.005408 -3.034706 -0.781937 0.140333 -0.478813 -0.804184 0.123485 -0.482625 -0.000073 -3.398232 30.654439 6.638663 1.758057 -20.208909 -0.075810 0.672674 16.561008 -11.374743 -4.168890 -3.520299 -0.853459 -7.961268 -3.063529 -0.936667 0.105789 -0.012535 0.036639 0.063817 2.451936 -0.000912 0.100573 2.451965 10.710823 1.021937 -1.892572 -7.082247 3.285810 -11.339114 13.091435 0.643718 -40.169101 1.201762 1.365858 -10.787719 0.016759 0.017076 -0.013826 -0.580486 0.909359 -26.145500 -4.149996 -3.220177 -20.958605 -4.274831 -3.142640 0.440041 -0.000029 0.000324 33.480068 -0.441786 -0.458728 -72.796129 -0.000060 -0.000072 -21.993998 0.000020 -0.000008 -0.026805 0.000003 -0.000016 0.012747 -0.000094 -0.000110 -34.639902 0.000036 0.000015 0.015177 0.000026 -0.000010 0.012726 -0.000051 -0.000053 -24.223474 0.000013 -0.000013 -0.000048 -0.000448 0.000217 0.000124 31.887541 10.615820 321.397639 0.150083 -0.012654 -0.119599 0.024189 -0.030011 11.786677 -0.127849 -0.003178 -0.084758 0.023246 -0.032340 11.715967 -0.043489 -0.194209 0.655773 0.050247 0.015082 11.756035 -0.135239 -0.033048 0.460600 0.050160 0.014803 11.743149 1.144972 0.077975 1.532092 -0.001863 -0.024057 11.750680 0.000072 -0.000033 11.750675 
0.000000 0.000000 0.000000 0.000008 0.000000 -0.000000 -0.000000 0.000000 -0.000000 0.212883 0.207724 -5.450239 0.464460 -0.921700 0.099348 0.858831 -3.135325 -33.141352 3.239754 -6.614251 24.773043 2.419855 -2.495636 55.273132 1.773441 -3.691044 32.439461 0.580523 -12.426386 0.967357 -0.330276 2.506916 12.974293 -0.478068 16.036652 -2.425723 3.861184 -0.457608 -19.785415 -5.933530 -2.070743 32.176813 -0.741632 -17.132100 -19.004153 -0.077707 -1.377737 0.421751 0.000101 -0.000137 0.000004 6.441882 -11.882764 -7.381000 -1.038955 -0.009156 -5.264844 6.006930 2.123259 32.630351 -8.084483 12.454911 -22.507355 -0.678866 0.246530 -4.020117 -0.009299 0.000417 -0.038427 -0.289537 -0.048269 -6.902345 0.917530 -0.020777 6.784387 -2.661778 -0.252995 0.078566 -0.296380 0.487291 -6.977241 0.000078 -0.000112 -0.000055 -0.000052 -0.014927 0.015042 8.905145 1.200285 -2.875942 -9.763820 13.931610 -11.813991 15.881317 11.283250 -25.417934 1.646616 0.600611 -16.062792 -2.336486 0.603826 27.613512 -6.150831 -4.395404 -18.179614 0.069387 -0.647404 15.926174 9.098676 2.647808 -8.069658 -1.967367 3.650288 7.071825 -0.120298 -0.005616 -3.159111 -0.781991 0.140334 -0.478817 -0.804184 0.123484 -0.482624 -0.275503 -2.976337 30.026540 6.314939 1.441717 -19.141651 -0.059870 0.608276 14.943416 -10.891386 -4.483207 -3.068627 -0.383482 -8.061903 0.609770 -1.073626 0.150841 -0.021360 0.036695 0.063821 2.451935 -0.000913 0.100573 2.451966 10.766774 1.026107 -1.902843 -7.441313 3.259810 -11.334576 5.075384 3.891698 -19.870173 1.200609 1.397536 -8.768622 0.000028 0.000037 0.000062 -0.952228 0.761547 -21.612136 -1.574915 -2.139752 -12.966674 -4.261829 -2.958295 -2.570518 -0.000029 0.000324 33.480074 -0.441786 -0.458727 -72.796129 -0.000059 -0.000073 -21.993998 0.000020 -0.000008 -0.026803 0.000002 -0.000016 0.012752 -0.000095 -0.000110 -34.639899 0.000036 0.000015 0.015182 0.000026 -0.000010 0.012726 -0.000051 -0.000053 -24.223476 0.000013 -0.000013 -0.000051 -0.000461 0.000218 0.000114 4.126335 7.133883 343.514474 0.150083 -0.012654 -0.119599 0.024222 -0.029999 11.786713 -0.127849 -0.003175 -0.084769 0.023267 -0.032329 11.715918 -0.036844 -0.204868 0.656076 0.050261 0.015107 11.756043 -0.135414 -0.032747 0.444917 0.050184 0.014848 11.743138 1.095444 0.041209 1.162933 -0.002003 -0.023891 11.750671 0.000072 -0.000033 11.750672 
0.000000 0.000000 0.000000 0.000008 0.000000 -0.000000 -0.000000 0.000000 -0.000000 0.198740 0.238775 -5.161673 0.529116 -1.010302 0.440865 0.001877 -2.370937 -35.407062 3.102889 -8.329942 18.596894 4.379071 -3.804303 54.913283 1.656426 -2.906355 42.191455 0.690110 -10.720095 1.991346 -0.391195 2.622847 13.152708 0.831285 15.897048 -7.221591 3.324278 -0.311321 -16.970011 -5.890147 -2.040179 31.909677 -0.868740 -17.074609 -17.920506 -0.106788 -1.375959 0.535185 0.000101 -0.000135 0.000004 6.064017 -11.716857 -10.161365 -0.963617 -0.011703 -4.883004 5.867567 2.024510 31.770601 -8.513376 11.930145 -20.919864 -0.529756 0.279637 -3.138529 -0.009299 0.000417 -0.038427 -0.317162 -0.027299 -7.023434 0.917530 -0.020777 6.784385 -2.472077 -0.248254 0.074474 -0.310697 0.914744 -6.657158 0.000078 -0.000112 -0.000055 -0.000052 -0.014928 0.015043 8.785405 1.205392 -2.842014 -9.817849 13.706059 -11.607430 8.349857 11.176282 -17.163354 1.715774 0.304268 -16.598594 -2.363515 0.661709 26.770611 -6.105545 -4.814813 -14.645841 0.018870 -0.382247 9.340969 8.691830 3.023106 -7.505143 -2.133077 3.620205 8.452635 -0.130914 -0.005814 -3.284668 -0.782098 0.140332 -0.478824 -0.804184 0.123485 -0.482624 -0.568370 -2.491438 28.831461 5.782646 1.016826 -16.075695 -0.017570 0.372486 9.100357 -9.850015 -4.900465 -1.181801 -0.002794 -8.119299 3.670658 -1.211885 0.196359 -0.030132 0.036802 0.063821 2.451935 -0.000912 0.100574 2.451965 10.626151 1.015597 -1.877058 -7.723088 2.992220 -10.621432 -0.268771 2.971940 -11.247255 1.185083 1.428846 -6.655860 0.427519 -0.086920 0.316676 -2.165376 0.564859 -15.919928 0.020078 -2.113852 -12.389053 -4.195053 -2.751400 -6.676624 -0.000029 0.000324 33.480071 -0.441786 -0.458727 -72.796136 -0.000060 -0.000073 -21.993989 0.000020 -0.000008 -0.026808 0.000002 -0.000016 0.012745 -0.000095 -0.000110 -34.639899 0.000036 0.000015 0.015177 0.000026 -0.000010 0.012725 -0.000051 -0.000052 -24.223473 0.000014 -0.000013 -0.000050 -0.000482 0.000227 0.000123 -2.800249 2.585696 352.929453 0.150083 -0.012658 -0.119593 0.024282 -0.029980 11.786799 -0.127848 -0.003175 -0.084768 0.023328 -0.032320 11.715825 -0.024901 -0.218349 0.650989 0.050274 0.015130 11.756048 -0.135589 -0.032446 0.429078 0.050232 0.014941 11.743119 1.041059 -0.001220 0.804549 -0.002004 -0.023890 11.750673 0.000071 -0.000034 11.750672 
0.000000 0.000000 0.000000 0.000008 0.000000 -0.000000 -0.000000 0.000000 -0.000000 0.184264 0.259484 -4.854164 0.596189 -1.091428 0.791415 -0.701479 -1.595061 -37.401303 2.589988 -9.660161 12.818977 6.465422 -5.604511 52.324006 1.856796 -2.601603 52.601377 0.997752 -8.106425 5.345721 -0.458359 2.743141 13.334867 1.948842 15.691885 -11.247570 2.913752 -0.218292 -14.839624 -5.822518 -1.993138 31.494948 -0.942510 -17.023845 -16.747346 -0.135297 -1.374274 0.646361 0.000101 -0.000136 0.000004 5.935984 -11.597175 -11.814340 -1.138246 -0.005031 -5.768223 5.710509 1.916915 30.812076 -8.962172 11.392717 -19.293551 -0.343164 0.312787 -2.033278 -0.009299 0.000417 -0.038427 -0.296271 0.003264 -6.895216 0.917530 -0.020777 6.784386 -2.286057 -0.243614 0.070495 -0.317464 1.356257 -5.934397 0.000078 -0.000112 -0.000055 -0.000052 -0.014927 0.015042 8.479386 1.215776 -2.754785 -9.679257 13.060811 -11.060649 3.286480 10.335263 -13.647541 1.743231 0.009786 -16.872355 -2.436323 0.863339 26.585217 -6.446429 -5.302027 -10.779920 -0.001115 -0.055911 1.363089 8.790727 3.397899 -7.618221 -2.203714 3.666114 6.751500 -0.141281 -0.005980 -3.407897 -0.781882 0.140334 -0.478811 -0.804184 0.123485 -0.482624 -0.803495 -2.028534 27.656662 5.161206 0.624166 -11.644488 -0.000022 -0.000244 -0.006252 -8.526042 -5.348313 1.818156 0.062720 -8.143440 4.718740 -1.347676 0.240973 -0.038622 0.036585 0.063819 2.451936 -0.000912 0.100573 2.451965 10.266140 0.988393 -1.811189 -7.679901 2.620888 -9.520308 -2.466934 2.230605 -7.578704 1.164145 1.455396 -4.770925 1.520471 -0.246065 1.092441 -3.608466 0.438059 -12.546166 0.831314 -2.089038 -12.059311 -4.100531 -2.604313 -10.981199 -0.000030 0.000324 33.480071 -0.441786 -0.458728 -72.796136 -0.000060 -0.000072 -21.993993 0.000019 -0.000008 -0.026808 0.000002 -0.000016 0.012747 -0.000095 -0.000110 -34.639902 0.000036 0.000016 0.015178 0.000025 -0.000010 0.012725 -0.000051 -0.000053 -24.223461 0.000014 -0.000013 -0.000050 -0.000483 0.000228 0.000128 -4.132686 0.869468 355.906186 0.150077 -0.012659 -0.119588 0.024155 -0.030014 11.786626 -0.127850 -0.003174 -0.084768 0.023213 -0.032341 11.716005 -0.013195 -0.231570 0.646000 0.050299 0.015178 11.756053 -0.135775 -0.032167 0.413532 0.050136 0.014754 11.743167 0.988224 -0.047207 0.463405 -0.002004 -0.023891 11.750673 0.000071 -0.000033 11.750678 
